<mxfile host="app.diagrams.net" modified="2023-04-11T08:40:27.362Z" agent="Mozilla/5.0 (Windows NT 10.0; Win64; x64) AppleWebKit/537.36 (KHTML, like Gecko) Chrome/112.0.0.0 Safari/537.36" etag="nMzplH0z3t2TXvVzqy6U" version="21.1.5" type="github">
  <diagram id="C5RBs43oDa-KdzZeNtuy" name="Page-1">
    <mxGraphModel dx="1434" dy="764" grid="1" gridSize="10" guides="1" tooltips="1" connect="1" arrows="1" fold="1" page="1" pageScale="1" pageWidth="827" pageHeight="1169" math="0" shadow="0">
      <root>
        <mxCell id="WIyWlLk6GJQsqaUBKTNV-0" />
        <mxCell id="WIyWlLk6GJQsqaUBKTNV-1" parent="WIyWlLk6GJQsqaUBKTNV-0" />
        <mxCell id="-tPhF9snOgmPBrBe38WP-12" style="edgeStyle=orthogonalEdgeStyle;rounded=0;orthogonalLoop=1;jettySize=auto;html=1;exitX=0.5;exitY=1;exitDx=0;exitDy=0;entryX=0.5;entryY=0;entryDx=0;entryDy=0;" edge="1" parent="WIyWlLk6GJQsqaUBKTNV-1" source="WIyWlLk6GJQsqaUBKTNV-3" target="WIyWlLk6GJQsqaUBKTNV-11">
          <mxGeometry relative="1" as="geometry" />
        </mxCell>
        <UserObject label="查询印章预设信息（外）" tooltip="查询当前企业用户关联的印章名称、印章图片、印章状态以及手机号等信息。&#xa;接口：/dcc/mapp/esign/outer/sign-seal/query/getSealPresetParam&#xa;orgId可以传公司ID也可以传部门ID，不过为了和后面的接口统一，最好传公司ID。" sealTypeCodeList="印章类型，非必填。如果不传则返回所有印章类型的印章。" id="WIyWlLk6GJQsqaUBKTNV-3">
          <mxCell style="rounded=1;whiteSpace=wrap;html=1;fontSize=12;glass=0;strokeWidth=1;shadow=0;" parent="WIyWlLk6GJQsqaUBKTNV-1" vertex="1">
            <mxGeometry x="100" y="130" width="120" height="40" as="geometry" />
          </mxCell>
        </UserObject>
        <mxCell id="-tPhF9snOgmPBrBe38WP-14" value="" style="edgeStyle=orthogonalEdgeStyle;rounded=0;orthogonalLoop=1;jettySize=auto;html=1;" edge="1" parent="WIyWlLk6GJQsqaUBKTNV-1" source="WIyWlLk6GJQsqaUBKTNV-11" target="-tPhF9snOgmPBrBe38WP-13">
          <mxGeometry relative="1" as="geometry" />
        </mxCell>
        <UserObject label="意愿认证验证码短信发送" tooltip="意愿认证验证码短信发送。&#xa;接口：/dcc/mapp/esign/outer/sign-seal/service/integrate/send-sms-code&#xa;需要上一节点获取到的手机号。该接口会生成流水号，用于下一节点验证短信验证码。" id="WIyWlLk6GJQsqaUBKTNV-11">
          <mxCell style="rounded=1;whiteSpace=wrap;html=1;fontSize=12;glass=0;strokeWidth=1;shadow=0;" parent="WIyWlLk6GJQsqaUBKTNV-1" vertex="1">
            <mxGeometry x="100" y="200" width="120" height="40" as="geometry" />
          </mxCell>
        </UserObject>
        <mxCell id="-tPhF9snOgmPBrBe38WP-7" style="edgeStyle=orthogonalEdgeStyle;rounded=0;orthogonalLoop=1;jettySize=auto;html=1;exitX=0.5;exitY=1;exitDx=0;exitDy=0;entryX=0.5;entryY=0;entryDx=0;entryDy=0;" edge="1" parent="WIyWlLk6GJQsqaUBKTNV-1" source="-tPhF9snOgmPBrBe38WP-5" target="WIyWlLk6GJQsqaUBKTNV-3">
          <mxGeometry relative="1" as="geometry" />
        </mxCell>
        <mxCell id="-tPhF9snOgmPBrBe38WP-5" value="申请免意愿认证授权码" style="rounded=1;whiteSpace=wrap;html=1;" vertex="1" parent="WIyWlLk6GJQsqaUBKTNV-1">
          <mxGeometry x="100" y="50" width="120" height="50" as="geometry" />
        </mxCell>
        <mxCell id="-tPhF9snOgmPBrBe38WP-29" style="edgeStyle=orthogonalEdgeStyle;rounded=0;orthogonalLoop=1;jettySize=auto;html=1;exitX=0.5;exitY=1;exitDx=0;exitDy=0;entryX=0.5;entryY=0;entryDx=0;entryDy=0;" edge="1" parent="WIyWlLk6GJQsqaUBKTNV-1" source="-tPhF9snOgmPBrBe38WP-8" target="-tPhF9snOgmPBrBe38WP-28">
          <mxGeometry relative="1" as="geometry" />
        </mxCell>
        <mxCell id="-tPhF9snOgmPBrBe38WP-8" value="文档加签" style="rounded=1;whiteSpace=wrap;html=1;" vertex="1" parent="WIyWlLk6GJQsqaUBKTNV-1">
          <mxGeometry x="530" y="50" width="126" height="40" as="geometry" />
        </mxCell>
        <mxCell id="-tPhF9snOgmPBrBe38WP-26" value="" style="edgeStyle=orthogonalEdgeStyle;rounded=0;orthogonalLoop=1;jettySize=auto;html=1;" edge="1" parent="WIyWlLk6GJQsqaUBKTNV-1" source="-tPhF9snOgmPBrBe38WP-9" target="-tPhF9snOgmPBrBe38WP-25">
          <mxGeometry relative="1" as="geometry" />
        </mxCell>
        <mxCell id="-tPhF9snOgmPBrBe38WP-31" style="edgeStyle=orthogonalEdgeStyle;rounded=0;orthogonalLoop=1;jettySize=auto;html=1;exitX=0.5;exitY=1;exitDx=0;exitDy=0;" edge="1" parent="WIyWlLk6GJQsqaUBKTNV-1" source="-tPhF9snOgmPBrBe38WP-9" target="-tPhF9snOgmPBrBe38WP-19">
          <mxGeometry relative="1" as="geometry" />
        </mxCell>
        <mxCell id="-tPhF9snOgmPBrBe38WP-9" value="是否有免意愿&lt;br&gt;认证授权码" style="rhombus;whiteSpace=wrap;html=1;rounded=1;" vertex="1" parent="WIyWlLk6GJQsqaUBKTNV-1">
          <mxGeometry x="543.75" y="290" width="98.5" height="80" as="geometry" />
        </mxCell>
        <mxCell id="-tPhF9snOgmPBrBe38WP-18" value="" style="edgeStyle=orthogonalEdgeStyle;rounded=0;orthogonalLoop=1;jettySize=auto;html=1;" edge="1" parent="WIyWlLk6GJQsqaUBKTNV-1" source="-tPhF9snOgmPBrBe38WP-13" target="-tPhF9snOgmPBrBe38WP-17">
          <mxGeometry relative="1" as="geometry" />
        </mxCell>
        <UserObject label="意愿认证短信验证码提交（验证）" tooltip="意愿认证短信验证码提交，即验证短信验证码是否正确。&#xa;接口：/dcc/mapp/esign/outer/sign-seal/service/integrate/verify-sms-code&#xa;需要上一节点获取到的流水号。" id="-tPhF9snOgmPBrBe38WP-13">
          <mxCell style="whiteSpace=wrap;html=1;rounded=1;glass=0;strokeWidth=1;shadow=0;" vertex="1" parent="WIyWlLk6GJQsqaUBKTNV-1">
            <mxGeometry x="100" y="270" width="120" height="40" as="geometry" />
          </mxCell>
        </UserObject>
        <UserObject label="免意愿认证授权码申请" tooltip="免意愿认证授权码申请服务。&#xa;接口：/dcc/mapp/esign/inner/sign-seal/service/integrate/free-sms-code&#xa;需要上一节点获取到的流水号。&#xa;controlType目前设置了还没有实质性的效果。companyId只能传公司ID。该接口最后会生成一个免意愿认证授权码，后面走免意愿认证签章就需要这个授权码。" id="-tPhF9snOgmPBrBe38WP-17">
          <mxCell style="whiteSpace=wrap;html=1;rounded=1;glass=0;strokeWidth=1;shadow=0;" vertex="1" parent="WIyWlLk6GJQsqaUBKTNV-1">
            <mxGeometry x="100" y="340" width="120" height="40" as="geometry" />
          </mxCell>
        </UserObject>
        <mxCell id="-tPhF9snOgmPBrBe38WP-33" value="" style="edgeStyle=orthogonalEdgeStyle;rounded=0;orthogonalLoop=1;jettySize=auto;html=1;" edge="1" parent="WIyWlLk6GJQsqaUBKTNV-1" source="-tPhF9snOgmPBrBe38WP-19" target="-tPhF9snOgmPBrBe38WP-32">
          <mxGeometry relative="1" as="geometry" />
        </mxCell>
        <UserObject label="签章预设" tooltip="签章预设服务，生成意愿认证流水号以及预设以供签章时判断并使用。&#xa;接口：/dcc/mapp/esign/outer/sign-seal/service/save-seal-preset-and-verify-sms&#xa;该接口需要调用方传入之前查询到的印章预设信息（需要调用方自己组装）。" id="-tPhF9snOgmPBrBe38WP-19">
          <mxCell style="whiteSpace=wrap;html=1;rounded=1;" vertex="1" parent="WIyWlLk6GJQsqaUBKTNV-1">
            <mxGeometry x="533" y="430" width="120" height="60" as="geometry" />
          </mxCell>
        </UserObject>
        <mxCell id="-tPhF9snOgmPBrBe38WP-24" value="是" style="text;html=1;align=center;verticalAlign=middle;resizable=0;points=[];autosize=1;strokeColor=none;fillColor=none;" vertex="1" parent="WIyWlLk6GJQsqaUBKTNV-1">
          <mxGeometry x="553" y="380" width="40" height="30" as="geometry" />
        </mxCell>
        <mxCell id="-tPhF9snOgmPBrBe38WP-34" style="edgeStyle=orthogonalEdgeStyle;rounded=0;orthogonalLoop=1;jettySize=auto;html=1;exitX=0.5;exitY=1;exitDx=0;exitDy=0;entryX=1;entryY=0.5;entryDx=0;entryDy=0;" edge="1" parent="WIyWlLk6GJQsqaUBKTNV-1" source="-tPhF9snOgmPBrBe38WP-25" target="-tPhF9snOgmPBrBe38WP-19">
          <mxGeometry relative="1" as="geometry" />
        </mxCell>
        <mxCell id="-tPhF9snOgmPBrBe38WP-25" value="意愿认证验证码短信发送" style="whiteSpace=wrap;html=1;rounded=1;" vertex="1" parent="WIyWlLk6GJQsqaUBKTNV-1">
          <mxGeometry x="720" y="300" width="120" height="60" as="geometry" />
        </mxCell>
        <mxCell id="-tPhF9snOgmPBrBe38WP-27" value="否" style="text;html=1;align=center;verticalAlign=middle;resizable=0;points=[];autosize=1;strokeColor=none;fillColor=none;" vertex="1" parent="WIyWlLk6GJQsqaUBKTNV-1">
          <mxGeometry x="653" y="300" width="40" height="30" as="geometry" />
        </mxCell>
        <mxCell id="-tPhF9snOgmPBrBe38WP-30" style="edgeStyle=orthogonalEdgeStyle;rounded=0;orthogonalLoop=1;jettySize=auto;html=1;exitX=0.5;exitY=1;exitDx=0;exitDy=0;entryX=0.5;entryY=0;entryDx=0;entryDy=0;" edge="1" parent="WIyWlLk6GJQsqaUBKTNV-1" source="-tPhF9snOgmPBrBe38WP-28" target="-tPhF9snOgmPBrBe38WP-9">
          <mxGeometry relative="1" as="geometry" />
        </mxCell>
        <mxCell id="-tPhF9snOgmPBrBe38WP-28" value="查询印章预设信息（外）" style="rounded=1;whiteSpace=wrap;html=1;" vertex="1" parent="WIyWlLk6GJQsqaUBKTNV-1">
          <mxGeometry x="533" y="160" width="120" height="60" as="geometry" />
        </mxCell>
        <UserObject label="OFD&lt;span&gt;、&lt;/span&gt;&lt;span lang=&quot;EN-US&quot;&gt;PDF&lt;/span&gt;&lt;span&gt;通用签章（加签）&lt;br&gt;&lt;/span&gt;" tooltip="OFD、PDF通用签章。&#xa;接口：/dcc/mapp/esign/outer/sign-seal/service/integrate/sign-file&#xa;" id="-tPhF9snOgmPBrBe38WP-32">
          <mxCell style="whiteSpace=wrap;html=1;rounded=1;" vertex="1" parent="WIyWlLk6GJQsqaUBKTNV-1">
            <mxGeometry x="533" y="555" width="120" height="60" as="geometry" />
          </mxCell>
        </UserObject>
      </root>
    </mxGraphModel>
  </diagram>
</mxfile>
